<svg width="960" height="212" viewBox="0 0 960 212" fill="none" xmlns="http://www.w3.org/2000/svg">
<path fill-rule="evenodd" clip-rule="evenodd" d="M213.598 53.6861C195.699 53.6861 182.971 60.448 176.01 67.0111V0H135.239V207.421H176.01V122.897C176.01 104.003 188.142 91.2746 204.45 91.2746C222.747 91.2746 232.293 104.401 232.293 120.709V207.62H273.064V112.157C273.064 79.1428 248.005 53.6861 213.598 53.6861ZM803.679 57.2656H762.908V207.421H803.679V57.2656ZM35.0032 21.2681H66.2275V57.2656H108.987V92.2687H66.2274V150.342C66.2274 166.65 76.1715 172.219 88.5022 172.219H108.987V209.41H80.9447C45.3449 209.41 25.4568 191.312 25.4568 156.11V92.0699H0V61.641H0.994453C18.6949 61.641 35.0032 45.7305 35.0032 21.8648V21.2681ZM375.686 53.686C326.762 53.686 293.946 90.2802 293.946 132.443C293.946 174.805 327.557 211.2 376.283 211.2C405.32 211.2 429.583 197.875 443.903 177.589L411.684 154.519C404.723 166.253 391.398 173.214 376.482 173.413C357.588 173.015 342.274 162.275 337.7 143.978H454.642C459.018 91.4734 424.611 53.686 375.686 53.686ZM338.496 116.731C343.07 101.815 356.395 90.6779 375.687 90.2802C394.978 90.6779 408.701 102.611 412.877 116.731H338.496ZM468.962 132.443C468.962 89.2858 503.169 53.686 550.901 53.686C598.831 53.686 632.84 89.2858 632.84 132.443C632.84 175.998 598.831 211.2 550.901 211.2C503.169 211.2 468.962 175.799 468.962 132.443ZM511.324 132.443C511.324 154.917 527.632 172.219 550.901 172.617C573.971 172.219 590.478 154.917 590.478 132.443C590.478 110.168 574.17 92.6667 550.901 92.269C527.632 92.6667 511.324 110.168 511.324 132.443ZM693.897 74.9664V57.2659H655.712V207.421H695.886V130.454C695.886 107.981 708.216 93.8601 730.889 93.8601H746.799V54.8794H735.463C718.558 54.8794 702.25 61.4424 693.897 74.9664ZM829.733 90.8768C839.279 70.591 861.156 53.686 891.784 53.686C937.924 53.686 960 85.7058 960 116.731V207.62H922.213V197.079C916.047 204.04 902.921 211.2 882.635 211.2C846.638 211.2 824.761 188.925 824.761 161.877C824.761 135.625 845.643 118.72 875.078 118.72H907.893C915.649 118.72 920.621 114.345 920.621 107.185C920.621 100.025 911.075 89.4846 891.784 89.4846C875.276 89.4846 864.338 98.6332 859.167 109.771L829.733 90.8768ZM888.204 178.385C908.092 178.385 920.224 165.656 920.224 149.945V147.956H882.635C873.288 147.956 866.725 153.922 866.725 162.673C866.725 171.424 874.481 178.385 888.204 178.385Z" fill="#FFFFFF"/>
</svg>
