<svg width="128" height="32" viewBox="0 0 128 32" fill="none" xmlns="http://www.w3.org/2000/svg">
<path d="M25.9243 25.7675C25.6607 25.7675 25.4437 25.6977 25.2731 25.5582C25.1181 25.4031 25.0251 25.2171 24.994 25L22.5057 10.1163C22.4902 10.0853 22.4824 10.0388 22.4824 9.97679C22.4824 9.85276 22.5289 9.74423 22.622 9.65121C22.7305 9.54268 22.8468 9.48842 22.9708 9.48842H26.0173C26.4669 9.48842 26.715 9.66671 26.7615 10.0233L28.1801 18.814L29.7847 13.721C29.9088 13.3024 30.1646 13.0931 30.5522 13.0931H32.2964C32.684 13.0931 32.9398 13.3024 33.0638 13.721L34.6685 18.7907L36.1103 10.0233C36.1413 9.83725 36.2111 9.70547 36.3196 9.62795C36.4281 9.53493 36.5987 9.48842 36.8312 9.48842H39.8778C40.0173 9.48842 40.1336 9.54268 40.2266 9.65121C40.3196 9.74423 40.3661 9.85276 40.3661 9.97679V10.1163L37.8778 25C37.8467 25.2171 37.746 25.4031 37.5754 25.5582C37.4049 25.6977 37.1956 25.7675 36.9475 25.7675H34.5987C34.3506 25.7675 34.1568 25.7055 34.0173 25.5814C33.8778 25.4574 33.7847 25.3179 33.7382 25.1628L31.4359 18.721L29.1336 25.1628C29.0716 25.3179 28.9708 25.4574 28.8313 25.5814C28.6917 25.7055 28.4979 25.7675 28.2499 25.7675H25.9243Z" fill="white"/>
<path d="M47.8412 26C45.8877 26 44.3839 25.5504 43.3296 24.6512C42.2908 23.7365 41.725 22.4419 41.6319 20.7675C41.6164 20.5659 41.6087 20.2171 41.6087 19.721C41.6087 19.2248 41.6164 18.876 41.6319 18.6745C41.725 17.031 42.3063 15.752 43.3761 14.8372C44.4614 13.907 45.9498 13.4419 47.8412 13.4419C49.7327 13.4419 51.2133 13.907 52.2831 14.8372C53.3684 15.752 53.9575 17.031 54.0505 18.6745C54.0815 19.0776 54.097 19.4264 54.097 19.721C54.097 20.0155 54.0815 20.3644 54.0505 20.7675C53.9575 22.4419 53.3839 23.7365 52.3296 24.6512C51.2908 25.5504 49.7947 26 47.8412 26ZM47.8412 23.0698C48.4769 23.0698 48.9498 22.876 49.2598 22.4884C49.5699 22.0853 49.7482 21.4729 49.7947 20.6512C49.8102 20.4962 49.818 20.1861 49.818 19.721C49.818 19.2558 49.8102 18.9458 49.7947 18.7907C49.7482 17.9845 49.5699 17.3799 49.2598 16.9768C48.9498 16.5737 48.4769 16.3721 47.8412 16.3721C47.2056 16.3721 46.7327 16.5737 46.4226 16.9768C46.1125 17.3799 45.9343 17.9845 45.8877 18.7907L45.8645 19.721L45.8877 20.6512C45.9343 21.4729 46.1125 22.0853 46.4226 22.4884C46.7327 22.876 47.2056 23.0698 47.8412 23.0698Z" fill="white"/>
<path d="M56.8937 25.7675C56.7387 25.7675 56.5992 25.7132 56.4751 25.6047C56.3666 25.4807 56.3123 25.3411 56.3123 25.1861V14.2791C56.3123 14.1086 56.3666 13.969 56.4751 13.8605C56.5836 13.7365 56.7232 13.6745 56.8937 13.6745H59.7309C59.9015 13.6745 60.041 13.7365 60.1495 13.8605C60.2736 13.969 60.3356 14.1086 60.3356 14.2791V15.1628C60.7697 14.6822 61.2736 14.3179 61.8472 14.0698C62.4364 13.8062 63.0875 13.6745 63.8007 13.6745H64.8472C65.0177 13.6745 65.1573 13.7287 65.2658 13.8373C65.3743 13.9458 65.4286 14.0853 65.4286 14.2559V16.7907C65.4286 16.9458 65.3743 17.0853 65.2658 17.2093C65.1573 17.3179 65.0177 17.3721 64.8472 17.3721H62.4984C61.8782 17.3721 61.3976 17.5427 61.0565 17.8838C60.7309 18.2248 60.5681 18.7055 60.5681 19.3256V25.1861C60.5681 25.3566 60.5061 25.4962 60.3821 25.6047C60.2736 25.7132 60.134 25.7675 59.9635 25.7675H56.8937Z" fill="white"/>
<path d="M67.6364 25.7675C67.4659 25.7675 67.3186 25.7132 67.1946 25.6047C67.0861 25.4962 67.0318 25.3566 67.0318 25.1861V9.83725C67.0318 9.66671 67.0861 9.52718 67.1946 9.41865C67.3186 9.31012 67.4659 9.25586 67.6364 9.25586H70.4737C70.6442 9.25586 70.7837 9.31012 70.8923 9.41865C71.0008 9.52718 71.055 9.66671 71.055 9.83725V17.6047L74.1481 14.0698C74.1791 14.0388 74.2333 13.9845 74.3109 13.907C74.4039 13.8295 74.4969 13.7752 74.5899 13.7442C74.683 13.6977 74.7992 13.6745 74.9388 13.6745H78.2178C78.3574 13.6745 78.4736 13.7287 78.5667 13.8373C78.6752 13.9303 78.7295 14.0543 78.7295 14.2093C78.7295 14.3489 78.6752 14.4729 78.5667 14.5814L74.4737 19.0931L79.1481 24.8838C79.2566 25.0233 79.3109 25.1396 79.3109 25.2326C79.3109 25.3876 79.2566 25.5194 79.1481 25.6279C79.055 25.721 78.931 25.7675 78.776 25.7675H75.4039C75.2023 25.7675 75.0473 25.7365 74.9388 25.6744C74.8457 25.6124 74.7295 25.5117 74.5899 25.3721L71.055 21V25.1861C71.055 25.3411 71.0008 25.4807 70.8923 25.6047C70.7837 25.7132 70.6442 25.7675 70.4737 25.7675H67.6364Z" fill="white"/>
<path d="M94.0647 13.7286L86.7082 6.19132C86.5906 6.07082 86.4293 6.00287 86.261 6.00287H81.4886C81.1567 6.00287 80.9885 6.40228 81.2203 6.6398L89.9983 15.6336C90.0632 15.7 90.0996 15.7901 90.0996 15.884C90.0996 15.978 90.0632 16.0681 89.9983 16.1345L81.2203 25.1283C80.9885 25.3658 81.1567 25.7652 81.4886 25.7652H86.261C86.4293 25.7652 86.5906 25.6972 86.7082 25.5767L94.0647 18.0395C94.6226 17.4678 94.9361 16.6925 94.9361 15.884C94.9361 15.0756 94.6226 14.3002 94.0647 13.7286Z" fill="#818181"/>
<path d="M99.8701 12.092L105.194 6.63693C105.426 6.39941 105.258 6 104.926 6H100.154C99.9853 6 99.824 6.06795 99.7064 6.18846L94.1625 11.8686C94.0189 12.0157 94.0196 12.2525 94.1772 12.3845C94.9408 13.0239 95.9014 13.3739 96.8952 13.3669C98.0118 13.359 99.0805 12.901 99.8701 12.092Z" fill="white"/>
<path d="M94.1752 19.3831C94.0176 19.5151 94.017 19.7518 94.1606 19.899L99.7045 25.5791C99.8221 25.6996 99.9833 25.7676 100.152 25.7676H104.924C105.256 25.7676 105.424 25.3682 105.192 25.1306L99.8682 19.6756C99.0786 18.8666 98.0099 18.4086 96.8932 18.4007C95.8994 18.3937 94.9388 18.7436 94.1752 19.3831Z" fill="white"/>
</svg>
