<svg width="128" height="32" viewBox="0 0 128 32" fill="none" xmlns="http://www.w3.org/2000/svg">
<path fill-rule="evenodd" clip-rule="evenodd" d="M35.8691 11.3155C36.9738 11.3155 37.833 12.2139 37.833 13.369V17.6043C37.833 18.7594 36.9738 19.6578 35.8691 19.6578C34.7643 19.6578 33.9051 18.7594 33.9051 17.6043V13.369C33.9051 12.2139 34.7643 11.3155 35.8691 11.3155ZM30.9592 14.0749C32.0639 14.0749 32.9232 14.9733 32.9232 16.1283V23.3797C32.9232 24.5348 32.0639 25.4332 30.9592 25.4332C29.8545 25.4332 28.9953 24.5348 28.9953 23.3797V16.1283C28.9953 14.9733 29.8545 14.0749 30.9592 14.0749ZM25.8039 5.73262C26.9086 5.73262 27.7678 6.63102 27.7678 7.7861V25.9465C27.7678 27.1016 26.9086 28 25.8039 28C24.6992 28 23.8399 27.1016 23.8399 25.9465V7.7861C23.8399 6.63102 24.6992 5.73262 25.8039 5.73262ZM20.894 4C21.9987 4 22.858 4.89839 22.858 6.05348V16.0642C22.858 17.2193 21.9987 18.1176 20.894 18.1176C19.7893 18.1176 18.9301 17.2193 18.9301 16.0642V6.05348C18.9301 4.96257 19.7893 4 20.894 4ZM15.7387 11.123C16.8434 11.123 17.7026 12.0214 17.7026 13.1765V18.3102C17.7026 19.4652 16.8434 20.3636 15.8 20.3636C14.6953 20.3636 13.8361 19.4652 13.8361 18.3743V18.3102V13.1765C13.7747 12.0214 14.634 11.123 15.7387 11.123Z" fill="#818181"/>
<path d="M54.8087 21.6356H45.833V19.5978L51.2502 13.395H46.276V11.298H54.7452V13.3805L49.3757 19.5386H54.8087V21.6356ZM59.2171 8.71139C59.2171 9.76133 58.5158 10.4228 57.4538 10.4228C56.3917 10.4228 55.6918 9.75555 55.6918 8.71139C55.6918 7.66722 56.3931 7 57.4538 7C58.5144 7 59.2171 7.66145 59.2171 8.71139ZM55.7539 21.6009V11.22H59.1638V21.5981L55.7539 21.6009ZM71.3516 19.0245C71.3516 19.6715 71.3516 20.4687 71.3314 21.0464C71.216 24.4735 68.8941 26 65.3919 26C62.2966 26 60.4192 24.7277 60.1681 22.3389L60.1479 22.1425H63.5102L63.5304 22.3389C63.6083 23.0235 64.3962 23.4149 65.4842 23.4149C66.783 23.4149 67.7282 22.8473 67.8248 21.4377C67.845 21.1244 67.8638 20.6348 67.8638 20.0672V19.7784C67.8638 19.7784 67.5218 20.6189 67.0903 20.9337C66.5131 21.367 65.6978 21.5807 64.6531 21.5807C61.8464 21.5807 59.9112 19.6426 59.9112 16.5477C59.9112 12.8274 62.1566 10.9672 64.8075 10.9672C65.6588 10.9672 66.7195 11.0741 67.187 11.4756C67.8335 12.0331 67.8638 12.592 67.8638 12.592V11.2315H71.3473L71.3516 19.0245ZM67.8638 16.2054V16.1462C67.8638 14.0506 66.8003 13.3459 65.7555 13.3459C64.4005 13.3459 63.4726 14.1488 63.4726 16.2834C63.4726 18.2417 64.4395 19.1819 65.6588 19.1819C66.9359 19.1819 67.8638 18.3977 67.8638 16.2054ZM83.1297 15.736V21.5981H79.6404V16.318C79.6404 15.9873 79.6404 15.4241 79.6014 14.8998C79.5235 13.9091 78.9809 13.3271 77.9347 13.3271C76.8885 13.3271 76.1122 14.3568 76.1122 16.7065V21.5981H72.6215V11.2286H76.1122V12.8404C76.307 12.3402 76.6276 11.899 77.0429 11.5594C77.6201 11.0813 78.4181 10.9571 79.3691 10.9571C81.5019 10.9571 82.7617 11.9681 83.033 13.7733C83.1123 14.4244 83.1446 15.0803 83.1297 15.736ZM90.1341 20.0831C90.1341 20.0831 90.1139 20.8052 89.7099 21.1706C89.0591 21.7598 88.1096 21.8696 87.1644 21.8696C85.4688 21.8696 83.8685 20.8023 83.8685 18.8021C83.8685 16.5881 85.9508 15.2291 89.44 15.2291H90.0952V15.0731C90.0989 14.8203 90.0859 14.5675 90.0562 14.3164C89.9985 13.7921 89.5742 13.3256 88.8224 13.3256C88.0129 13.3256 87.5497 13.8499 87.4919 14.7438L84.2177 14.7626C84.2379 12.3349 86.3822 10.9571 88.9797 10.9571C92.2381 10.9571 93.3564 12.4129 93.5108 14.2961C93.5484 14.8204 93.5686 15.4226 93.5686 16.0638V18.9768C93.5659 19.8539 93.6276 20.73 93.7533 21.5981H90.3607L90.1341 20.0831ZM90.0952 17.8893V17.2091C88.5338 17.0936 87.4155 17.4979 87.4155 18.5291C87.4155 19.1516 87.8974 19.5011 88.5915 19.5011C89.2856 19.5011 90.0908 18.9768 90.0908 17.8893H90.0952ZM98.2801 17.8561C98.268 18.1748 98.281 18.494 98.319 18.8107C98.3767 19.2209 98.5499 19.3566 99.459 19.3177V21.6963C98.8212 21.754 98.2021 21.793 97.4287 21.793C95.8255 21.793 94.9163 21.1504 94.8399 19.7711C94.8009 19.2267 94.8009 18.6995 94.8009 17.9197V7.27151H98.2801V17.8561ZM106.771 21.5518C105.481 24.8302 104.364 25.626 101.919 25.626C101.43 25.6345 100.94 25.6021 100.456 25.5292V23.2791C100.769 23.3116 101.084 23.3241 101.398 23.3167C102.208 23.3167 102.766 23.0452 103.094 22.3057L103.228 22.0169L98.9727 11.1853H102.824L104.941 18.7717L107.041 11.1853H110.833L106.771 21.5518Z" fill="white"/>
</svg>
