<svg width="128" height="32" viewBox="0 0 128 32" fill="none" xmlns="http://www.w3.org/2000/svg">
<g clip-path="url(#clip0_1625_23859)">
<path d="M60.546 16.6764C60.5827 17.4354 60.4615 18.1937 60.19 18.9034C59.9185 19.6132 59.5027 20.2588 58.9688 20.7995C58.4349 21.3403 57.7946 21.7643 57.0884 22.0448C56.3822 22.3253 55.6254 22.4562 54.866 22.4291C53.6749 22.4428 52.5176 22.033 51.6006 21.2727L51.2515 22.0727H48.4951V7.34546H52.1751V11.6364C52.987 11.1483 53.9189 10.8965 54.866 10.9091C55.6267 10.8819 56.3847 11.0131 57.092 11.2945C57.7993 11.5759 58.4403 12.0012 58.9744 12.5435C59.5085 13.0859 59.924 13.7333 60.1946 14.4448C60.4651 15.1562 60.5848 15.9162 60.546 16.6764ZM56.786 16.6764C56.786 16.0341 56.5309 15.4181 56.0767 14.9639C55.6225 14.5097 55.0065 14.2545 54.3642 14.2545C53.7219 14.2545 53.1059 14.5097 52.6517 14.9639C52.1975 15.4181 51.9424 16.0341 51.9424 16.6764C51.9424 17.3187 52.1975 17.9347 52.6517 18.3889C53.1059 18.843 53.7219 19.0982 54.3642 19.0982C55.0065 19.0982 55.6225 18.843 56.0767 18.3889C56.5309 17.9347 56.786 17.3187 56.786 16.6764Z" fill="white"/>
<path d="M62.2539 11.2582H65.9848V22.0727H62.2539V11.2582ZM62.2539 6.74182H65.8903V9.89818H62.2539V6.74182Z" fill="white"/>
<path d="M84.9235 15.2727V22.0582H81.1999V15.7527C81.1999 14.6182 80.7781 14.0727 79.9926 14.0727C78.9672 14.0727 78.4435 14.8 78.4435 16.1454V22.0727H74.8072V15.7527C74.8072 14.6545 74.3926 14.0727 73.6144 14.0727C72.6035 14.0727 72.0508 14.8 72.0508 16.1454V22.0727H68.3271V11.2582H70.9453L71.4544 12.4145C71.8463 11.959 72.3317 11.5933 72.8777 11.3423C73.4236 11.0913 74.0172 10.9609 74.6181 10.96C75.2277 10.9437 75.8317 11.0811 76.3744 11.3594C76.917 11.6378 77.381 12.0481 77.7235 12.5527C78.1172 12.0399 78.6239 11.6249 79.2041 11.3398C79.7843 11.0547 80.4225 10.9073 81.069 10.9091C83.3817 10.9091 84.9235 12.7418 84.9235 15.2727Z" fill="white"/>
<path d="M87.1416 11.2582H90.8652V22.0727H87.1416V11.2582ZM87.1416 6.74182H90.778V9.89818H87.1416V6.74182Z" fill="white"/>
<path d="M100.443 14.1818H98.0213V22.0727H94.2977V14.1818H92.5449V11.2727H94.3922V10.4C94.3922 8.2182 95.5777 6.96002 97.8758 6.96002H100.479V9.8182H98.8286C98.7102 9.80696 98.5908 9.822 98.4789 9.86225C98.3671 9.9025 98.2655 9.96696 98.1814 10.051C98.0973 10.1351 98.0329 10.2367 97.9926 10.3486C97.9524 10.4605 97.9373 10.5798 97.9486 10.6982V11.2582H100.494L100.443 14.1818Z" fill="white"/>
<path d="M113.637 11.2582L109.106 21.5927C107.651 24.9018 106.306 26.1018 103.513 26.1018H102.233V22.8945H103.259C104.713 22.8945 105.113 22.5236 105.622 21.1782L101.149 11.2582H105.2L107.491 17.2145L109.637 11.2582H113.637Z" fill="white"/>
<path d="M23.9268 8.46545V18.0364C23.9288 18.1844 23.9695 18.3294 24.0447 18.457C24.12 18.5845 24.2272 18.6902 24.3558 18.7636L31.8904 23.1273C31.9657 23.1675 32.0502 23.1875 32.1356 23.1853C32.221 23.1831 32.3043 23.1589 32.3776 23.115C32.4508 23.071 32.5114 23.0089 32.5535 22.9346C32.5956 22.8603 32.6177 22.7763 32.6177 22.6909V13.4909L23.9268 8.46545Z" fill="white"/>
<path d="M38.3491 25.9927L42.1382 23.8109C42.2659 23.7364 42.3724 23.6305 42.4475 23.5032C42.5226 23.3759 42.5638 23.2314 42.5673 23.0837V8.26184C42.5638 8.11406 42.5226 7.96963 42.4475 7.84232C42.3724 7.715 42.2659 7.60905 42.1382 7.53456L29.3164 0.116381C29.187 0.0416977 29.0403 0.00238037 28.8909 0.00238037C28.7416 0.00238037 28.5948 0.0416977 28.4655 0.116381L23.9346 2.73456L37.6 10.6255V25.5637C37.6013 25.6507 37.6253 25.736 37.6695 25.811C37.7138 25.886 37.7768 25.9483 37.8524 25.9916C37.9279 26.0348 38.0135 26.0577 38.1006 26.0579C38.1877 26.0581 38.2733 26.0357 38.3491 25.9927Z" fill="white"/>
<path d="M24.5745 8.83638L32.6327 13.4909L37.6 10.6255L23.9345 2.73456L14.4291 8.2182C14.3005 8.2916 14.1932 8.3973 14.118 8.52485C14.0427 8.6524 14.002 8.79739 14 8.94547V23.76C14.002 23.9081 14.0427 24.0531 14.118 24.1806C14.1932 24.3082 14.3005 24.4139 14.4291 24.4873L27.1709 31.8618C27.3243 31.9513 27.4988 31.9984 27.6764 31.9984C27.854 31.9984 28.0284 31.9513 28.1818 31.8618L32.1091 29.5927C32.1619 29.562 32.2058 29.518 32.2362 29.465C32.2667 29.4121 32.2828 29.352 32.2828 29.2909C32.2828 29.2298 32.2667 29.1698 32.2362 29.1168C32.2058 29.0639 32.1619 29.0198 32.1091 28.9891L19.3964 21.6364C19.2677 21.563 19.1605 21.4573 19.0852 21.3297C19.01 21.2022 18.9693 21.0572 18.9673 20.9091V11.8255C18.9693 11.6782 19.0091 11.534 19.083 11.4066C19.1569 11.2793 19.2623 11.1731 19.3891 11.0982L23.28 8.85092C23.4753 8.73437 23.6979 8.67162 23.9253 8.66907C24.1527 8.66651 24.3767 8.72424 24.5745 8.83638V8.83638Z" fill="#818181"/>
</g>
<defs>
<clipPath id="clip0_1625_23859">
<rect width="99.6364" height="32" fill="white" transform="translate(14)"/>
</clipPath>
</defs>
</svg>
