<svg width="128" height="32" viewBox="0 0 128 32" fill="none" xmlns="http://www.w3.org/2000/svg">
<path d="M98.644 24.1839H100.132C100.415 24.1839 100.604 23.995 100.675 23.8297C101.147 22.7436 101.643 21.6811 102.115 20.595H109.836L111.3 23.8297C111.394 24.0422 111.559 24.1839 111.843 24.1839H113.33C113.684 24.1839 113.873 23.8769 113.732 23.57L106.53 7.6797C106.459 7.53804 106.247 7.41998 106.129 7.41998H105.893C105.775 7.41998 105.562 7.53804 105.491 7.6797L98.2426 23.57C98.101 23.8769 98.2898 24.1839 98.644 24.1839ZM103.036 18.5644L105.916 12.095H106.034L108.938 18.5644H103.036Z" fill="white"/>
<path d="M86.2679 23.7352C86.2679 23.9713 86.4804 24.1838 86.7165 24.1838H88.2749C88.511 24.1838 88.7235 23.9713 88.7235 23.7352V9.87551H92.5721C92.8318 9.87551 93.0207 9.66301 93.0207 9.4269V8.10468C93.0207 7.86857 92.8318 7.65607 92.5721 7.65607H82.4193C82.1596 7.65607 81.9707 7.86857 81.9707 8.10468V9.4269C81.9707 9.66301 82.1596 9.87551 82.4193 9.87551H86.2679V23.7352Z" fill="white"/>
<path d="M62.5146 23.7352C62.5146 23.9713 62.7035 24.1838 62.9633 24.1838H64.498C64.7341 24.1838 64.9466 23.9713 64.9466 23.7352V17.7144H68.5119L71.6521 23.9713C71.6994 24.0658 71.841 24.1838 72.0299 24.1838H73.8716C74.273 24.1838 74.4383 23.8061 74.273 23.4991L71.0383 17.5019C73.0924 16.6755 74.5327 14.8811 74.5327 12.7088C74.5327 9.89912 72.2188 7.65607 69.3855 7.65607H62.9633C62.7035 7.65607 62.5146 7.86857 62.5146 8.10468V23.7352ZM64.9938 15.6838V9.94634H69.1966C70.7313 9.94634 72.0772 11.2213 72.0772 12.7561C72.0772 14.3852 70.7313 15.6838 69.1966 15.6838H64.9938Z" fill="white"/>
<path d="M36.3877 15.9436C36.3877 20.6658 40.1419 24.42 44.8641 24.42C49.5863 24.42 53.3641 20.6658 53.3641 15.9436C53.3641 11.2214 49.5863 7.41998 44.8641 7.41998C40.1419 7.41998 36.3877 11.2214 36.3877 15.9436ZM38.7488 15.9436C38.7488 12.5908 41.5113 9.78109 44.8641 9.78109C48.2405 9.78109 51.003 12.5908 51.003 15.9436C51.003 19.32 48.2405 22.0589 44.8641 22.0589C41.5113 22.0589 38.7488 19.32 38.7488 15.9436Z" fill="white"/>
<path d="M21.2487 24.1602C21.3195 24.3019 21.4848 24.42 21.6501 24.42H21.8862C22.0751 24.42 22.2168 24.3019 22.2876 24.1602L29.5362 8.26996C29.6779 7.96301 29.489 7.65607 29.1348 7.65607H27.4584C27.2459 7.65607 27.1043 7.79773 27.057 7.91579L21.8626 19.6033H21.7209L16.5265 7.91579C16.4793 7.79773 16.314 7.65607 16.1251 7.65607H14.4487C14.0945 7.65607 13.9056 7.96301 14.0473 8.26996L21.2487 24.1602Z" fill="white"/>
</svg>
