<svg width="128" height="32" viewBox="0 0 128 32" fill="none" xmlns="http://www.w3.org/2000/svg">
<path d="M29.2588 16.9808L29.2588 16.9808C28.8338 17.7288 29.086 18.6853 29.8222 19.1171L32.3649 20.6088C33.1011 21.0407 34.0424 20.7844 34.4674 20.0364C34.8924 19.2884 34.6402 18.332 33.9041 17.9001L31.3613 16.4084C30.6251 15.9766 29.6838 16.2329 29.2588 16.9808Z" fill="#818181"/>
<path d="M29.2588 12.1677L29.2588 12.1677C28.8338 12.9157 29.086 13.8721 29.8222 14.304L32.3649 15.7956C33.1011 16.2275 34.0424 15.9712 34.4674 15.2232C34.8924 14.4752 34.6402 13.5188 33.9041 13.0869L31.3613 11.5953C30.6251 11.1634 29.6838 11.4197 29.2588 12.1677Z" fill="#818181"/>
<path d="M29.2588 7.35437L29.2588 7.35438C28.8338 8.10237 29.086 9.05883 29.8222 9.49068L32.365 10.9824C33.1011 11.4142 34.0424 11.1579 34.4674 10.4099C34.8925 9.66193 34.6402 8.70548 33.9041 8.27363L31.3613 6.78195C30.6252 6.3501 29.6838 6.60638 29.2588 7.35437Z" fill="#818181"/>
<path d="M19.207 20.7271V6.90274H22.6676V8.5256C23.407 7.29343 24.8859 6.69238 26.4239 6.69238H27.4591V10.2687H26.0098C23.969 10.2687 22.845 11.561 22.845 13.6346V20.7271H19.207Z" fill="white"/>
<path d="M47.3816 6.90278H51.0788V20.8474C51.0788 24.9646 48.0619 28 43.6253 28C40.6676 28 38.4197 26.5274 37.3845 24.604L40.2239 22.5003C40.7859 23.5521 42.1465 24.3636 43.6253 24.3636C45.962 24.3636 47.3816 22.8309 47.3816 20.8474V19.9758C46.2281 20.6971 44.8676 21.0577 43.5662 21.0577C39.4845 21.0577 36.3789 17.6918 36.3789 13.815C36.3789 9.93812 39.4845 6.5722 43.5662 6.5722C44.8676 6.5722 46.2281 6.93283 47.3816 7.6541V6.90278ZM47.3816 13.815C47.3816 11.7714 45.9028 10.1485 43.8028 10.1184C41.7028 10.1485 40.2239 11.7714 40.2239 13.815C40.2239 15.8886 41.7028 17.4814 43.8028 17.5115C45.9028 17.4814 47.3816 15.8886 47.3816 13.815Z" fill="white"/>
<path d="M53.918 20.7271V6.90274H57.3785V8.5256C58.118 7.29343 59.5968 6.69238 61.1348 6.69238H62.1701V10.2687H60.7207C58.6799 10.2687 57.556 11.561 57.556 13.6346V20.7271H53.918Z" fill="white"/>
<path d="M62.6729 13.815C62.6729 9.84797 65.7785 6.5722 70.0968 6.5722C74.4446 6.5722 77.5207 9.84797 77.5207 13.815C77.5207 17.812 74.4446 21.0577 70.0968 21.0577C65.7785 21.0577 62.6729 17.812 62.6729 13.815ZM73.6756 13.815C73.6756 11.7714 72.1967 10.1485 70.0968 10.1184C67.9967 10.1485 66.5179 11.7714 66.5179 13.815C66.5179 15.8886 67.9967 17.4814 70.0968 17.5115C72.1967 17.4814 73.6756 15.8886 73.6756 13.815Z" fill="white"/>
<path d="M79.1475 14.6565V6.90283H82.8446V14.7767C82.8446 16.2794 83.732 17.5115 85.3587 17.5115C87.0151 17.5115 87.9024 16.2794 87.9024 14.7767V6.90283H91.5995V14.6565C91.5995 18.1727 89.5883 21.0578 85.3587 21.0578C81.1587 21.0578 79.1475 18.1727 79.1475 14.6565Z" fill="white"/>
<path d="M108.725 13.815C108.725 17.6918 105.619 21.0577 101.537 21.0577C100.206 21.0577 98.8754 20.6671 97.6923 19.9458V27.6694H93.9951V6.90278H97.6923V7.68416C98.8754 6.9629 100.206 6.5722 101.537 6.5722C105.619 6.5722 108.725 9.93812 108.725 13.815ZM104.88 13.815C104.88 11.7714 103.401 10.1485 101.301 10.1184C99.2007 10.1485 97.7219 11.7714 97.7219 13.815C97.7219 15.8886 99.2007 17.4814 101.301 17.5115C103.401 17.4814 104.88 15.8886 104.88 13.815Z" fill="white"/>
</svg>
