<svg width="535" height="69" viewBox="0 0 535 69" fill="none" xmlns="http://www.w3.org/2000/svg">
<path d="M159.45 66.67H131.56L122.53 56.19L136.48 40L159.45 66.67Z" fill="white"/>
<path d="M117.61 18.0787L103.67 34.2787L89.72 18.0787L75.77 1.88867H103.67L117.61 18.0787Z" fill="white"/>
<path d="M159.45 1.90039L154.59 7.54037L145.5 18.0904L131.55 34.2804H131.56L117.61 50.4804L103.66 66.6704H75.77L103.67 34.2804L131.55 1.90039H159.45Z" fill="white"/>
<path d="M0 1.88867H13.45V66.6687H0V1.88867Z" fill="white"/>
<path d="M70.43 1.88867V13.3587H51.05V66.6687H37.43V13.3587H17.96V1.88867H70.43Z" fill="white"/>
<path d="M191.07 57.31C194.26 57.31 196.86 56.96 198.85 56.26C202.63 54.91 204.52 52.41 204.52 48.75C204.52 46.61 203.58 44.96 201.71 43.78C199.83 42.64 196.89 41.63 192.88 40.75L186.02 39.21C179.28 37.69 174.62 36.03 172.05 34.24C167.68 31.25 165.5 26.58 165.5 20.22C165.5 14.42 167.61 9.60001 171.83 5.76001C176.05 1.92001 182.25 0 190.42 0C197.25 0 203.07 1.81002 207.89 5.43002C212.71 9.05002 215.24 14.3 215.47 21.18H202.46C202.23 17.28 200.53 14.52 197.36 12.87C195.25 11.79 192.63 11.24 189.49 11.24C186 11.24 183.22 11.94 181.14 13.35C179.06 14.76 178.02 16.72 178.02 19.24C178.02 21.55 179.05 23.28 181.1 24.43C182.42 25.19 185.23 26.09 189.54 27.11L200.7 29.79C205.59 30.96 209.28 32.53 211.77 34.49C215.64 37.54 217.57 41.95 217.57 47.72C217.57 53.49 215.31 58.55 210.78 62.46C206.25 66.37 199.86 68.33 191.6 68.33C183.34 68.33 176.53 66.4 171.69 62.55C166.86 58.7 164.44 53.4 164.44 46.66H177.36C177.77 49.62 178.58 51.83 179.78 53.3C181.98 55.97 185.74 57.3 191.07 57.3V57.31Z" fill="white"/>
<path d="M264.63 24.8285C268.67 29.8985 270.69 35.8885 270.69 42.7985C270.69 49.7085 268.67 55.8385 264.63 60.8385C260.59 65.8385 254.45 68.3285 246.22 68.3285C237.99 68.3285 231.85 65.8285 227.81 60.8385C223.77 55.8485 221.75 49.8285 221.75 42.7985C221.75 35.7685 223.77 29.8985 227.81 24.8285C231.85 19.7585 237.99 17.2285 246.22 17.2285C254.45 17.2285 260.59 19.7585 264.63 24.8285ZM246.17 27.8185C242.51 27.8185 239.69 29.1185 237.71 31.7085C235.73 34.2985 234.74 37.9985 234.74 42.8085C234.74 47.6185 235.73 51.3185 237.71 53.9285C239.69 56.5385 242.51 57.8385 246.17 57.8385C249.83 57.8385 252.64 56.5385 254.61 53.9285C256.57 51.3185 257.55 47.6185 257.55 42.8085C257.55 37.9985 256.57 34.3085 254.61 31.7085C252.65 29.1185 249.83 27.8185 246.17 27.8185Z" fill="white"/>
<path d="M274.97 1.88867H287.49V66.6687H274.97V1.88867Z" fill="white"/>
<path d="M323.41 59.9C323.29 60.05 323 60.49 322.53 61.22C322.06 61.95 321.5 62.6 320.86 63.15C318.9 64.91 317 66.11 315.17 66.75C313.34 67.39 311.19 67.72 308.73 67.72C301.64 67.72 296.86 65.17 294.4 60.07C293.02 57.26 292.33 53.11 292.33 47.63V18.76H305.16V47.63C305.16 50.35 305.48 52.41 306.13 53.78C307.27 56.21 309.51 57.43 312.85 57.43C317.13 57.43 320.06 55.7 321.64 52.24C322.46 50.37 322.87 47.89 322.87 44.81V18.75H335.57V66.65H323.4V59.88L323.41 59.9Z" fill="white"/>
<path d="M366.9 57.7498V67.1098L360.97 67.3298C355.05 67.5298 351.01 66.5098 348.84 64.2498C347.43 62.8098 346.73 60.5998 346.73 57.6098V28.1198H340.05V19.1998H346.73V5.83984H359.12V19.1998H366.9V28.1198H359.12V53.4298C359.12 55.3898 359.37 56.6198 359.87 57.0998C360.37 57.5798 361.89 57.8298 364.44 57.8298C364.82 57.8298 365.22 57.8298 365.65 57.8098C366.07 57.7998 366.49 57.7698 366.9 57.7398V57.7498Z" fill="white"/>
<path d="M385.12 1.5V13.06H372.42V1.5H385.12ZM385.12 18.77V66.67H372.42V18.77H385.12Z" fill="white"/>
<path d="M432.691 24.8285C436.731 29.8985 438.751 35.8885 438.751 42.7985C438.751 49.7085 436.731 55.8385 432.691 60.8385C428.651 65.8385 422.511 68.3285 414.281 68.3285C406.051 68.3285 399.911 65.8285 395.871 60.8385C391.831 55.8485 389.811 49.8285 389.811 42.7985C389.811 35.7685 391.831 29.8985 395.871 24.8285C399.911 19.7585 406.051 17.2285 414.281 17.2285C422.511 17.2285 428.651 19.7585 432.691 24.8285ZM414.231 27.8185C410.571 27.8185 407.751 29.1185 405.771 31.7085C403.791 34.2985 402.801 37.9985 402.801 42.8085C402.801 47.6185 403.791 51.3185 405.771 53.9285C407.751 56.5385 410.571 57.8385 414.231 57.8385C417.891 57.8385 420.701 56.5385 422.671 53.9285C424.631 51.3185 425.611 47.6185 425.611 42.8085C425.611 37.9985 424.631 34.3085 422.671 31.7085C420.711 29.1185 417.891 27.8185 414.231 27.8185Z" fill="white"/>
<path d="M465.771 28.0409C461.521 28.0409 458.611 29.8409 457.021 33.4509C456.201 35.3509 455.791 37.7909 455.791 40.7409V66.6709H443.311V18.8609H455.391V25.8509C457.001 23.3909 458.521 21.6209 459.961 20.5309C462.541 18.6009 465.801 17.6309 469.761 17.6309C474.711 17.6309 478.761 18.9309 481.911 21.5209C485.061 24.1109 486.631 28.4109 486.631 34.4209V66.6809H473.801V37.5409C473.801 35.0209 473.461 33.0909 472.791 31.7409C471.561 29.2809 469.221 28.0509 465.761 28.0509L465.771 28.0409Z" fill="white"/>
<path d="M527.06 20.9587C530.81 23.3587 532.96 27.4887 533.52 33.3487H521C520.82 31.7387 520.37 30.4587 519.64 29.5287C518.26 27.8287 515.92 26.9787 512.61 26.9787C509.89 26.9787 507.94 27.3987 506.79 28.2487C505.63 29.0987 505.05 30.0987 505.05 31.2387C505.05 32.6787 505.67 33.7187 506.9 34.3587C508.13 35.0287 512.48 36.1887 519.95 37.8287C524.93 38.9987 528.67 40.7687 531.16 43.1487C533.62 45.5487 534.85 48.5587 534.85 52.1587C534.85 56.9087 533.08 60.7787 529.55 63.7787C526.02 66.7787 520.56 68.2787 513.18 68.2787C505.8 68.2787 500.09 66.6887 496.5 63.5087C492.91 60.3287 491.12 56.2787 491.12 51.3587H503.82C504.08 53.5887 504.65 55.1687 505.53 56.1087C507.08 57.7787 509.95 58.6087 514.14 58.6087C516.6 58.6087 518.56 58.2387 520.01 57.5087C521.46 56.7787 522.19 55.6787 522.19 54.2087C522.19 52.7387 521.6 51.7287 520.43 50.9987C519.26 50.2687 514.91 49.0087 507.38 47.2187C501.96 45.8687 498.14 44.1887 495.91 42.1687C493.68 40.1787 492.57 37.3087 492.57 33.5587C492.57 29.1387 494.31 25.3387 497.78 22.1587C501.25 18.9787 506.14 17.3887 512.44 17.3887C518.74 17.3887 523.29 18.5787 527.07 20.9487L527.06 20.9587Z" fill="white"/>
</svg>
