<svg width="253" height="45" viewBox="0 0 253 45" fill="none" xmlns="http://www.w3.org/2000/svg">
<path fill-rule="evenodd" clip-rule="evenodd" d="M22.7255 31.2576L14.7849 22.1137L24.1378 15.2677H26.9871V12.2571H15.1298V15.2677H18.9825L19.1083 15.5186L8.03705 23.8689V2.75702H0V5.76752H4.02484L4.92584 6.66889V30.3562L4.02484 31.2576H0.15063V34.2679H12.7615V31.2576H8.93804L8.03704 30.3562V27.0591L12.2587 23.9845L19.0002 31.7372V34.2679H28.2939V31.2576L22.7255 31.2576Z" fill="white"/>
<path fill-rule="evenodd" clip-rule="evenodd" d="M44.9682 7.42666C46.8577 7.42666 48.2826 6.04452 48.2826 4.21237C48.2826 2.35132 46.8576 0.947998 44.9682 0.947998C43.1936 0.947998 41.804 2.38187 41.804 4.21237C41.804 6.01486 43.1937 7.42666 44.9682 7.42666Z" fill="white"/>
<path fill-rule="evenodd" clip-rule="evenodd" d="M48.279 31.2576L47.3774 30.3562V12.257H34.515V15.2676H43.3653L44.2668 16.1689V30.3562L43.3653 31.2576H34.515V34.2678H56.6766V31.2576L48.279 31.2576Z" fill="white"/>
<path fill-rule="evenodd" clip-rule="evenodd" d="M85.7116 31.2581L84.8106 30.357V19.9454C84.8106 14.6912 81.7672 11.554 76.6698 11.554C73.372 11.554 70.6078 13.4134 69.0271 15.5103V12.2579H61.342V15.2681H65.015L65.916 16.1696V30.357L65.015 31.2581H61.342V34.2682H73.5511V31.2581H69.9282L69.0271 30.357V19.7809C70.8462 16.3529 73.3835 14.6148 76.5697 14.6148C79.9732 14.6148 81.6994 16.6282 81.6994 20.5992V30.357L80.7984 31.2581H77.1255V34.2682H89.3344V31.2581H85.7116Z" fill="white"/>
<path fill-rule="evenodd" clip-rule="evenodd" d="M117.064 31.2574L116.464 30.658V2.75702H106.718V5.7677H112.753L113.354 6.36752V15.8458C111.474 13.1685 108.436 11.6036 105.007 11.6036C98.7322 11.6036 94.001 16.6378 94.001 23.3128C94.001 29.9883 98.7322 35.022 105.007 35.022C108.424 35.022 111.462 33.4401 113.354 30.7331V34.2677H120.385V31.2574H117.064ZM113.354 20.4719V26.1036C111.605 29.9903 108.847 31.9612 105.157 31.9612C100.612 31.9612 97.3133 28.324 97.3133 23.3128C97.3133 18.3016 100.612 14.6644 105.157 14.6644C108.862 14.6644 111.619 16.6187 113.354 20.4719V20.4719Z" fill="white"/>
<path fill-rule="evenodd" clip-rule="evenodd" d="M142.386 11.5536C138.956 11.5536 135.919 13.118 134.039 15.7953V2.75702H126.605V5.7677H130.328L130.928 6.36752V30.658L130.328 31.2574H127.007V34.2677H134.039V30.7297C135.919 33.4073 138.956 34.9714 142.386 34.9714C148.66 34.9714 153.391 29.9377 153.391 23.2628C153.391 16.5873 148.66 11.5536 142.386 11.5536ZM150.079 23.2628C150.079 28.2739 146.78 31.9112 142.234 31.9112C138.521 31.9112 135.764 29.9407 134.039 26.0541V20.471C135.764 16.5847 138.521 14.6143 142.234 14.6143C146.78 14.6143 150.079 18.2516 150.079 23.2628Z" fill="white"/>
<path fill-rule="evenodd" clip-rule="evenodd" d="M168.879 13.9136L169.603 13.4745L167.7 10.81L167.077 11.1863C163.671 13.2446 159.612 17.0108 159.612 23.2632C159.612 29.5159 163.672 33.282 167.078 35.3407L167.709 35.7217L169.565 33.0457L168.851 32.613C165.126 30.3544 162.99 26.9468 162.99 23.2632C162.99 19.5904 165.136 16.1823 168.879 13.9136L168.879 13.9136Z" fill="white"/>
<path fill-rule="evenodd" clip-rule="evenodd" d="M179.129 11.1863L178.506 10.81L176.603 13.4745L177.327 13.9136C181.07 16.1823 183.216 19.5901 183.216 23.2632C183.216 26.9468 181.08 30.3549 177.355 32.6135L176.642 33.0462L178.498 35.7217L179.129 35.3403C182.535 33.282 186.594 29.5154 186.594 23.2632C186.594 17.0108 182.535 13.2446 179.129 11.1863L179.129 11.1863Z" fill="white"/>
<path fill-rule="evenodd" clip-rule="evenodd" d="M215.878 31.2574L215.278 30.658V2.75702H205.533V5.7677H211.568L212.168 6.36752V15.8458C210.288 13.1685 207.25 11.6036 203.821 11.6036C197.546 11.6036 192.815 16.6378 192.815 23.3128C192.815 29.9883 197.546 35.022 203.821 35.022C207.239 35.022 210.277 33.4401 212.168 30.7331V34.2677H219.199V31.2574H215.878ZM212.168 20.4719V26.1036C210.419 29.9903 207.661 31.9612 203.971 31.9612C199.426 31.9612 196.128 28.324 196.128 23.3128C196.128 18.3016 199.426 14.6644 203.971 14.6644C207.676 14.6644 210.433 16.6187 212.168 20.4719V20.4719Z" fill="white"/>
<path fill-rule="evenodd" clip-rule="evenodd" d="M241.054 12.258V15.2682H245.16L245.614 15.8201L238.187 30.5795L230.76 15.8201L231.214 15.2682H235.319V12.258H223.864V15.2682H226.816L236.437 33.8205C233.704 39.1873 232.377 41.5629 230.094 41.5629C229.32 41.5629 228.707 41.3643 228.36 41.0168C229.536 40.7275 230.292 39.8257 230.292 38.6443C230.292 37.0988 229.04 35.9331 227.379 35.9331C225.605 35.9331 224.266 37.4013 224.266 39.3484C224.266 42.2411 226.772 44.422 230.094 44.422C234.005 44.422 236.219 40.7054 239.15 35.0346L249.357 15.2682H252.309V12.258H241.054Z" fill="white"/>
</svg>
