<svg width="433" height="150" viewBox="0 0 433 150" fill="none" xmlns="http://www.w3.org/2000/svg">
<path fill-rule="evenodd" clip-rule="evenodd" d="M141.36 27.386L114.972 30.2913C112.995 30.6008 111.128 29.253 110.818 27.2761L105.427 1.2776C105.217 -0.0502811 103.5 -0.469612 102.711 0.628636L80.0775 31.7889C79.738 32.2482 79.0591 32.2482 78.7197 31.7889L56.1756 0.758429C55.3869 -0.329835 53.6696 0.0795119 53.4599 1.40739L48.0685 27.4059C47.759 29.3828 45.892 30.7406 43.9152 30.4211L17.5273 27.5157C16.1994 27.3061 15.2709 28.8037 16.0696 29.9019L38.7734 61.1421C39.1128 61.6014 38.8932 62.2603 38.354 62.4301L1.83229 74.3011C0.554327 74.7205 0.41455 76.4777 1.61264 77.0867L24.6759 90.2457C26.463 91.1542 27.1719 93.3408 26.2633 95.1279L15.3407 119.329C14.7317 120.527 15.8699 121.875 17.1578 121.456L53.5298 109.635C54.069 109.455 54.6281 109.864 54.6281 110.433V148.483C54.6281 149.831 56.2555 150.51 57.214 149.551L76.8526 131.68C78.2704 130.262 80.5667 130.262 81.9844 131.68L101.623 149.551C102.572 150.5 104.209 149.831 104.209 148.483V108.696C104.209 107.738 103.83 106.809 103.151 106.13L81.9944 84.9741C80.5767 83.5564 78.2803 83.5564 76.8626 84.9741L63.6038 98.233C62.9248 98.9119 61.8266 98.1131 62.2659 97.2645L70.7124 80.6909C71.621 78.9038 70.9121 76.7173 69.125 75.8087L51.1936 66.6733C50.3449 66.244 50.7642 64.946 51.7027 65.0958L71.4013 68.2108C73.3782 68.5203 75.2452 67.1725 75.5547 65.1957L78.6498 45.6269C78.7995 44.6884 80.1574 44.6884 80.3071 45.6269L83.3822 65.0659C83.6917 67.0427 85.5587 68.4005 87.5356 68.081L117.088 63.3985C118.037 63.2488 118.896 62.7296 119.455 61.9508L142.837 29.7622C143.626 28.6739 142.708 27.1663 141.38 27.376L141.36 27.386Z" fill="white"/>
<path d="M152.244 109.999V43.6094H179.676C180.321 43.6094 181.151 43.6401 182.166 43.7016C183.18 43.7323 184.117 43.8245 184.978 43.9782C188.82 44.5622 191.986 45.8377 194.475 47.8048C196.996 49.7719 198.855 52.2615 200.054 55.2737C201.283 58.2551 201.898 61.5745 201.898 65.2321C201.898 70.6417 200.53 75.2982 197.795 79.2016C195.059 83.0744 190.864 85.4718 185.208 86.3938L180.46 86.8088H163.355V109.999H152.244ZM190.372 109.999L177.279 82.9821L188.574 80.4925L202.958 109.999H190.372ZM163.355 76.4354H179.215C179.83 76.4354 180.521 76.4046 181.29 76.3432C182.058 76.2817 182.765 76.1588 183.41 75.9743C185.255 75.5133 186.699 74.6988 187.744 73.5308C188.82 72.3629 189.573 71.0412 190.003 69.5659C190.464 68.0906 190.695 66.646 190.695 65.2321C190.695 63.8183 190.464 62.3737 190.003 60.8984C189.573 59.3923 188.82 58.0553 187.744 56.8873C186.699 55.7193 185.255 54.9048 183.41 54.4438C182.765 54.2594 182.058 54.1518 181.29 54.1211C180.521 54.0596 179.83 54.0289 179.215 54.0289H163.355V76.4354Z" fill="white"/>
<path d="M229.298 111.382C224.258 111.382 219.832 110.291 216.02 108.109C212.209 105.927 209.228 102.899 207.076 99.0263C204.955 95.1536 203.895 90.6969 203.895 85.6562C203.895 80.2159 204.94 75.4979 207.03 71.5023C209.12 67.4759 212.025 64.3562 215.744 62.1432C219.463 59.9302 223.766 58.8237 228.653 58.8237C233.816 58.8237 238.196 60.0378 241.792 62.4659C245.419 64.8633 248.109 68.2596 249.861 72.6549C251.613 77.0501 252.273 82.2291 251.843 88.1919H240.824V84.1347C240.793 78.7252 239.841 74.7756 237.966 72.286C236.091 69.7964 233.14 68.5516 229.114 68.5516C224.565 68.5516 221.184 69.9655 218.971 72.7932C216.758 75.5901 215.651 79.6934 215.651 85.1029C215.651 90.1436 216.758 94.0471 218.971 96.8133C221.184 99.5796 224.411 100.963 228.653 100.963C231.388 100.963 233.74 100.363 235.707 99.1646C237.705 97.9352 239.241 96.1679 240.317 93.8627L251.29 97.1822C249.384 101.67 246.434 105.158 242.438 107.648C238.473 110.137 234.093 111.382 229.298 111.382ZM212.148 88.1919V79.801H246.403V88.1919H212.148Z" fill="white"/>
<path d="M314.122 109.999V79.7549C314.122 76.3432 313.276 73.6845 311.586 71.7789C309.895 69.8425 307.606 68.8743 304.716 68.8743C302.934 68.8743 301.335 69.2893 299.922 70.1191C298.508 70.9183 297.386 72.117 296.556 73.7153C295.726 75.2828 295.311 77.1577 295.311 79.3399L290.378 76.4354C290.347 72.993 291.116 69.9655 292.683 67.3529C294.282 64.7096 296.433 62.6503 299.138 61.175C301.843 59.6997 304.855 58.962 308.174 58.962C313.676 58.962 317.887 60.6217 320.807 63.9412C323.757 67.23 325.233 71.5637 325.233 76.9425V109.999H314.122ZM254.233 109.999V60.2068H264.053V75.6516H265.436V109.999H254.233ZM284.246 109.999V79.8932C284.246 76.42 283.401 73.7153 281.71 71.7789C280.02 69.8425 277.715 68.8743 274.795 68.8743C271.967 68.8743 269.693 69.8425 267.972 71.7789C266.281 73.7153 265.436 76.2356 265.436 79.3399L260.457 76.0205C260.457 72.7932 261.256 69.8886 262.854 67.3068C264.452 64.725 266.604 62.6964 269.309 61.2211C272.044 59.715 275.102 58.962 278.483 58.962C282.202 58.962 285.307 59.7611 287.796 61.3594C290.317 62.9269 292.191 65.0784 293.421 67.8139C294.681 70.5187 295.311 73.5769 295.311 76.9886V109.999H284.246Z" fill="white"/>
<path d="M351.734 133.512C348.968 133.512 346.31 133.082 343.758 132.221C341.238 131.361 338.964 130.116 336.935 128.487C334.907 126.888 333.247 124.952 331.956 122.678L342.191 117.606C343.144 119.42 344.481 120.757 346.202 121.617C347.954 122.509 349.813 122.954 351.781 122.954C354.086 122.954 356.145 122.539 357.958 121.709C359.772 120.91 361.17 119.712 362.154 118.113C363.168 116.546 363.645 114.579 363.583 112.212V98.0581H364.966V60.2068H374.694V112.396C374.694 113.657 374.633 114.855 374.51 115.993C374.418 117.161 374.249 118.298 374.003 119.404C373.265 122.632 371.851 125.275 369.761 127.334C367.671 129.424 365.074 130.976 361.97 131.991C358.896 133.005 355.484 133.512 351.734 133.512ZM350.766 111.382C346.187 111.382 342.191 110.23 338.779 107.924C335.368 105.619 332.724 102.484 330.849 98.5192C328.974 94.5542 328.037 90.0822 328.037 85.1029C328.037 80.0622 328.974 75.5748 330.849 71.6406C332.755 67.6756 335.444 64.5559 338.918 62.2815C342.391 59.9763 346.479 58.8237 351.181 58.8237C355.915 58.8237 359.88 59.9763 363.076 62.2815C366.303 64.5559 368.747 67.6756 370.407 71.6406C372.066 75.6055 372.896 80.093 372.896 85.1029C372.896 90.0514 372.066 94.5235 370.407 98.5192C368.747 102.484 366.273 105.619 362.984 107.924C359.695 110.23 355.623 111.382 350.766 111.382ZM352.472 101.424C355.454 101.424 357.851 100.748 359.664 99.3952C361.509 98.012 362.846 96.091 363.675 93.6322C364.536 91.1733 364.966 88.3302 364.966 85.1029C364.966 81.8449 364.536 79.0018 363.675 76.5737C362.846 74.1148 361.539 72.2092 359.757 70.8568C357.974 69.4737 355.669 68.7821 352.841 68.7821C349.86 68.7821 347.401 69.5198 345.464 70.9951C343.528 72.4397 342.099 74.4068 341.177 76.8964C340.255 79.3553 339.794 82.0908 339.794 85.1029C339.794 88.1458 340.239 90.912 341.131 93.4016C342.053 95.8605 343.451 97.8123 345.326 99.2568C347.201 100.701 349.583 101.424 352.472 101.424Z" fill="white"/>
<path d="M399.84 111.428C396.152 111.428 393.109 110.814 390.712 109.584C388.314 108.355 386.409 106.787 384.995 104.882C383.581 102.976 382.536 100.947 381.86 98.7958C381.184 96.6443 380.738 94.6157 380.523 92.7101C380.338 90.7737 380.246 89.2062 380.246 88.0075V60.2068H391.496V84.1809C391.496 85.7177 391.603 87.4542 391.818 89.3906C392.033 91.2962 392.525 93.1404 393.294 94.9231C394.093 96.675 395.261 98.1196 396.797 99.2568C398.365 100.394 400.47 100.963 403.114 100.963C404.528 100.963 405.926 100.732 407.309 100.271C408.692 99.8101 409.937 99.0263 411.044 97.9198C412.181 96.7826 413.088 95.2304 413.764 93.2633C414.44 91.2962 414.778 88.8066 414.778 85.7945L421.371 88.6068C421.371 92.8484 420.541 96.6904 418.881 100.133C417.252 103.575 414.839 106.326 411.643 108.385C408.446 110.414 404.512 111.428 399.84 111.428ZM416.115 109.999V94.5542H414.778V60.2068H425.935V109.999H416.115Z" fill="white"/>
</svg>
