<svg width="343" height="88" viewBox="0 0 343 88" fill="none" xmlns="http://www.w3.org/2000/svg">
<path d="M132.846 35.1113C134.594 35.1114 136.135 35.3931 137.468 35.9561C138.801 36.519 139.853 37.3634 140.623 38.4893C141.393 39.6151 141.778 41.0223 141.778 42.7109V43.0225H137.956V42.5332C137.956 41.7333 137.823 41.0369 137.557 40.4443C137.29 39.8222 136.786 39.3331 136.045 38.9775C135.334 38.6221 134.237 38.4443 132.756 38.4443C130.801 38.4444 129.512 38.711 128.89 39.2441C128.267 39.7478 127.956 40.5043 127.956 41.5117C127.956 42.4893 128.238 43.1858 128.801 43.6006C129.393 43.9857 130.49 44.3554 132.09 44.7109L135.823 45.3779C137.186 45.615 138.342 45.9999 139.29 46.5332C140.238 47.0369 140.964 47.7037 141.468 48.5332C141.971 49.3628 142.223 50.3858 142.223 51.6006C142.223 53.6448 141.467 55.2296 139.956 56.3555C138.445 57.4517 136.356 58 133.689 58C130.578 58 128.193 57.3629 126.534 56.0889C124.905 54.7852 124.09 52.8147 124.09 50.1777V50.0889H128.001V50.7109C128.001 51.6293 128.149 52.385 128.445 52.9775C128.771 53.5405 129.349 53.9703 130.179 54.2666C131.008 54.5332 132.208 54.667 133.778 54.667C135.082 54.667 136.06 54.5629 136.712 54.3555C137.393 54.1185 137.838 53.7927 138.045 53.3779C138.282 52.9632 138.4 52.43 138.4 51.7783C138.4 50.7709 138.075 50.0593 137.423 49.6445C136.771 49.2001 135.63 48.8295 134.001 48.5332L130.4 47.9111C129.156 47.6741 128.06 47.3187 127.112 46.8447C126.194 46.3707 125.468 45.7038 124.935 44.8447C124.401 43.9856 124.134 42.9041 124.134 41.6006C124.134 39.6154 124.905 38.0442 126.445 36.8887C127.986 35.7036 130.12 35.1113 132.846 35.1113ZM156.248 35.1113C158.144 35.1114 159.833 35.482 161.314 36.2227C162.796 36.9338 163.966 38.0007 164.825 39.4229C165.684 40.8153 166.114 42.5482 166.114 44.6221C166.114 45.185 166.085 45.7333 166.025 46.2666C165.996 46.7999 165.952 47.2298 165.893 47.5557H149.55C149.597 48.8749 149.784 50.0306 150.114 51.0225C150.529 52.1484 151.225 53.008 152.203 53.6006C153.211 54.1635 154.589 54.4443 156.337 54.4443C158.411 54.4443 159.863 54.0746 160.692 53.334C161.552 52.5637 161.981 51.6151 161.981 50.4893V50.1777H165.937V50.5332C165.937 51.9851 165.536 53.2745 164.736 54.4004C163.936 55.5262 162.81 56.4146 161.358 57.0664C159.936 57.6886 158.247 58 156.292 58C153.981 58 152.04 57.511 150.47 56.5332C148.9 55.5555 147.729 54.2076 146.959 52.4893C146.189 50.7707 145.804 48.7851 145.804 46.5332C145.804 44.2815 146.218 42.2965 147.048 40.5781C147.907 38.8596 149.122 37.5263 150.692 36.5781C152.263 35.6004 154.115 35.1113 156.248 35.1113ZM219.257 35.1113C221.271 35.1113 222.931 35.4963 224.234 36.2666C225.538 37.037 226.516 38.0895 227.168 39.4229C227.82 40.7264 228.145 42.2521 228.146 44V57.5557H224.457V53.9385L224.234 53.9111C223.849 54.6519 223.271 55.3338 222.501 55.9561C221.76 56.5782 220.857 57.0817 219.79 57.4668C218.723 57.8223 217.494 58 216.102 58C214.116 58 212.442 57.4966 211.079 56.4893C209.746 55.4818 209.079 54.0444 209.079 52.1777C209.079 50.9038 209.375 49.8664 209.968 49.0664C210.56 48.2369 211.405 47.5701 212.501 47.0664C213.627 46.5331 214.99 46.1635 216.59 45.9561L224.323 44.8623V43.334C224.323 41.6155 223.923 40.4006 223.123 39.6895C222.323 38.9783 220.93 38.6221 218.945 38.6221C217.02 38.6221 215.642 38.9784 214.812 39.6895C214.013 40.3709 213.612 41.4963 213.612 43.0664V43.8223H209.745V43.4229C209.745 41.8229 210.131 40.3997 210.901 39.1553C211.701 37.8814 212.812 36.8888 214.234 36.1777C215.657 35.4666 217.331 35.1113 219.257 35.1113ZM257.675 35.1113C259.571 35.1113 261.261 35.4819 262.742 36.2227C264.223 36.9338 265.394 38.0008 266.253 39.4229C267.112 40.8153 267.542 42.5483 267.542 44.6221C267.542 45.1849 267.512 45.7334 267.453 46.2666C267.423 46.7999 267.379 47.2297 267.319 47.5557H250.977C251.023 48.8749 251.211 50.0306 251.542 51.0225C251.957 52.1483 252.653 53.008 253.631 53.6006C254.638 54.1634 256.016 54.4443 257.764 54.4443C259.837 54.4443 261.289 54.0745 262.119 53.334C262.978 52.5637 263.408 51.6151 263.408 50.4893V50.1777H267.364V50.5332C267.364 51.9851 266.964 53.2745 266.164 54.4004C265.364 55.5262 264.238 56.4146 262.786 57.0664C261.364 57.6886 259.675 58 257.72 58C255.409 58 253.468 57.511 251.897 56.5332C250.327 55.5554 249.156 54.2078 248.386 52.4893C247.615 50.7707 247.23 48.7851 247.23 46.5332C247.231 44.2816 247.645 42.2965 248.475 40.5781C249.334 38.8597 250.549 37.5263 252.119 36.5781C253.689 35.6004 255.542 35.1114 257.675 35.1113ZM196.943 35.1113C198.869 35.1113 200.425 35.4667 201.61 36.1777C202.825 36.8888 203.729 37.9111 204.321 39.2441C204.914 40.5478 205.211 42.0598 205.211 43.7783V57.5557H201.211V44.7109C201.211 42.578 200.811 41.0227 200.011 40.0449C199.24 39.0671 197.773 38.5781 195.61 38.5781C193.625 38.5781 192.159 39.0521 191.211 40C190.292 40.9185 189.833 42.4744 189.833 44.667V57.5557H185.833V44.7109C185.833 42.5779 185.433 41.0227 184.633 40.0449C183.862 39.0672 182.381 38.5782 180.188 38.5781C178.203 38.5781 176.736 39.0519 175.788 40C174.87 40.9185 174.41 42.4744 174.41 44.667V57.5557H170.41V35.5557H174.055V39.7334H174.232C174.529 38.9927 174.988 38.2668 175.61 37.5557C176.262 36.8446 177.092 36.2667 178.1 35.8223C179.137 35.3483 180.366 35.1113 181.788 35.1113C183.655 35.1113 185.166 35.4668 186.321 36.1777C187.506 36.8887 188.38 37.9111 188.943 39.2441C189.016 39.404 189.085 39.5673 189.148 39.7334H189.3C189.626 38.9928 190.114 38.2666 190.766 37.5557C191.417 36.8446 192.247 36.2667 193.255 35.8223C194.262 35.3482 195.492 35.1114 196.943 35.1113ZM238.598 35.5557H245.442V38.9336H238.598V51.0225C238.598 52.2372 238.909 53.0224 239.531 53.3779C240.153 53.7335 241.205 53.9111 242.687 53.9111H245.442V57.2002C245.028 57.2891 244.479 57.3779 243.798 57.4668C243.116 57.526 242.39 57.5557 241.62 57.5557C239.368 57.5556 237.635 57.0666 236.42 56.0889C235.205 55.1111 234.598 53.4366 234.598 51.0664V38.9336H230.953V35.5557H234.666L235.62 30H238.598V35.5557ZM279.952 44.0449H280.219L286.618 35.5557H291.196L283.019 46.2666V46.5781L291.196 57.5557H286.529L279.996 48.6221H279.729L273.33 57.5557H268.752L276.93 46.4004V46.0889L268.752 35.5557H273.419L279.952 44.0449ZM299.944 35.5557H306.789V38.9336H299.944V51.0225C299.944 52.2372 300.256 53.0224 300.878 53.3779C301.5 53.7334 302.552 53.9111 304.033 53.9111H306.789V57.2002C306.374 57.2891 305.826 57.3779 305.145 57.4668C304.463 57.526 303.737 57.5557 302.967 57.5557C300.715 57.5557 298.981 57.0666 297.767 56.0889C296.552 55.1111 295.944 53.4368 295.944 51.0664V38.9336H292.3V35.5557H296.013L296.967 30H299.944V35.5557ZM217.079 48.8447C215.509 49.0521 214.427 49.3635 213.834 49.7783C213.271 50.1932 212.99 50.8897 212.99 51.8672C212.99 52.8744 213.316 53.6005 213.968 54.0449C214.62 54.4893 215.746 54.7109 217.346 54.7109C218.501 54.7109 219.612 54.5189 220.679 54.1338C221.745 53.719 222.619 53.0521 223.301 52.1338C223.982 51.2153 224.323 49.941 224.323 48.3115V47.8398L217.079 48.8447ZM156.159 38.4443C153.641 38.4443 151.907 39.1112 150.959 40.4443C150.171 41.5284 149.711 42.9508 149.578 44.7109H162.291C162.392 43.3355 162.246 42.21 161.848 41.334C161.403 40.3563 160.693 39.6293 159.715 39.1553C158.767 38.6812 157.581 38.4444 156.159 38.4443ZM257.586 38.4443C255.068 38.4444 253.334 39.111 252.386 40.4443C251.597 41.5284 251.139 42.9509 251.006 44.7109H263.719C263.82 43.3356 263.673 42.21 263.275 41.334C262.831 40.3562 262.119 39.6293 261.142 39.1553C260.193 38.6813 259.008 38.4443 257.586 38.4443Z" fill="#F6F7F8"/>
<path fill-rule="evenodd" clip-rule="evenodd" d="M77.528 15.1446C77.528 15.1446 79.0098 14.9392 81.1303 14.9507C85.7956 14.976 93.5526 16.0497 95.4238 22.6613C95.4238 22.6613 98.1386 28.2867 96.4831 32.9923C96.5649 32.9499 96.6613 32.9315 96.7774 32.9702L97.1193 33.1407C97.3762 32.799 97.7181 32.543 98.1462 32.2862V32.0302C98.1462 31.859 98.23 31.6023 98.4869 31.5168L99.2569 31.1751C99.5138 31.0895 99.6851 31.1751 99.8557 31.3456L100.028 31.5174C101.568 31.0895 103.535 31.2613 105.674 32.458C105.845 32.543 105.76 32.7997 105.589 32.7997C104.734 32.7135 103.365 32.6279 102.595 32.6279C99.857 32.6279 97.2899 34.4236 99.5145 36.3048C101.824 38.1848 105.417 42.1178 98.3169 46.819C97.7181 47.2468 97.2043 47.5878 96.6061 47.8445L96.6918 48.5285C96.7774 48.7852 96.6061 49.1268 96.3493 49.2124L95.4073 49.6402C95.151 49.7258 94.8104 49.6389 94.6385 49.4684L94.0397 48.8701C93.1841 49.1268 92.329 49.2124 91.474 49.2979L91.3883 49.8114C91.3027 50.0687 91.0452 50.3241 90.7895 50.3241L89.7632 50.4091C89.5063 50.4091 89.2488 50.2392 89.1632 49.9825L88.9069 49.213L88.8918 49.2113C88.1268 49.1263 87.3623 49.0414 86.683 48.8707L86.3405 49.3835C86.1699 49.6402 85.8273 49.7264 85.5704 49.6408L84.6298 49.2992C84.3735 49.2136 84.2016 48.9576 84.2016 48.7009V48.1012C83.7748 47.9595 82.9046 47.7458 81.9595 47.5137C81.1924 47.3253 80.3758 47.1247 79.7069 46.9407C82.0805 51.1247 91.904 55.689 98.9163 58.7029C100.97 59.6429 102.509 59.9845 103.622 59.9845C105.503 59.9845 106.36 59.0433 106.873 57.9328C108.413 54.7693 106.102 52.1204 103.622 52.1204C102.68 52.1204 101.569 52.547 100.799 53.6588C100.286 54.2565 100.2 56.821 102.937 56.821H103.023C103.45 56.7354 104.648 56.3938 104.562 55.4532C104.562 54.7699 103.963 54.5132 103.45 54.5132C102.852 54.5132 102.424 54.7705 102.767 55.3689C102.767 55.3689 102.937 55.8817 102.338 55.8817C101.739 55.8817 101.312 54.8561 101.91 54.0011C102.253 53.66 102.937 53.3171 103.707 53.3171C104.734 53.3171 105.76 53.8305 106.103 55.2833C106.616 57.1639 104.734 58.4468 102.681 58.4468C101.996 58.4468 101.225 58.2751 100.541 57.8472C98.06 56.3944 98.06 54.9404 98.1456 53.7437C98.4019 51.008 101.056 49.5553 103.878 49.5553C104.477 49.5553 104.99 49.6402 105.503 49.7258C105.76 49.3835 106.187 49.0431 106.359 49.0431L107.129 49.1274C107.471 49.213 107.728 49.5553 107.814 49.8969L107.984 50.6658C108.669 51.0936 109.267 51.6077 109.78 52.2909H109.866C110.294 52.2909 110.722 52.3765 110.807 52.4614L111.236 53.0611C111.407 53.2316 111.407 53.6594 111.15 54.0011L110.893 54.3433L110.898 54.3654C111.067 55.1276 111.236 55.8907 111.236 56.8217H111.749C112.006 56.9079 112.176 57.079 112.005 57.4213L111.92 58.1895C111.92 58.4462 111.578 58.7878 111.236 58.8734L110.893 58.959C110.808 59.0439 110.808 59.2157 110.808 59.3006C110.123 63.0625 107.214 64.5146 103.536 64.5146C100.713 64.5146 97.3756 63.6602 94.1254 62.2068C91.6446 61.0957 88.9925 59.7285 86.4255 58.3606L86.0849 58.7029C85.913 58.8734 85.6554 58.959 85.4848 58.959C85.442 58.959 85.3993 58.9376 85.3567 58.9162C85.314 58.8948 85.2714 58.8734 85.2285 58.8734L84.2872 58.5311C83.9447 58.3606 83.7741 57.9334 83.8591 57.5911L84.031 56.9915C83.8575 56.8926 83.6768 56.7864 83.491 56.6772C83.0353 56.4096 82.5487 56.1237 82.0621 55.881L81.7215 56.2227C81.5496 56.3944 81.292 56.4787 81.1214 56.4787C81.0784 56.4791 81.0356 56.4578 80.9928 56.4366C80.9503 56.4155 80.9078 56.3944 80.8651 56.3944L79.9245 56.0515C79.5819 55.881 79.4113 55.4532 79.4963 55.1115L79.6682 54.5132C79.2263 54.2371 78.7838 53.9967 78.3646 53.769C78.1352 53.6444 77.9128 53.5235 77.7012 53.4027L77.273 53.8293C77.1024 53.9998 76.8449 54.0866 76.6743 54.0866C76.6314 54.0866 76.5885 54.0651 76.5457 54.0437C76.503 54.0224 76.4604 54.0011 76.418 54.0011L75.476 53.6594C75.1348 53.4876 74.9623 53.0598 75.0479 52.7175L75.2198 52.0349C74.706 51.7788 74.1928 51.5221 73.7647 51.2654L73.3378 51.7782C73.1659 51.9487 72.9084 52.0355 72.7377 52.0355C72.6949 52.0355 72.6523 52.0141 72.6096 51.9927C72.567 51.9713 72.5243 51.9499 72.4815 51.9499L71.5402 51.6083C71.1976 51.4365 71.027 51.0093 71.112 50.667L71.2839 50.07L71.1175 50.0076C70.5279 49.7863 70.1421 49.6415 69.8288 49.6415C69.5719 49.6415 69.4006 49.7277 69.4006 49.9844C69.4006 52.7194 77.443 68.3639 80.6939 68.3639C81.292 68.3639 81.8045 67.7649 81.9764 66.4827C82.4896 62.9782 82.0608 61.9526 81.377 61.9526C80.5207 61.9526 79.0669 64.0044 79.0669 64.0044C79.0669 64.0044 78.8962 60.4143 81.8045 59.5592C82.0589 59.4743 82.3139 59.4743 82.569 59.4743H82.5746C87.1093 59.4743 87.4505 72.7248 81.0339 72.9802H80.8632C77.2699 72.9802 72.5646 67.8524 68.7149 62.3804L68.5443 62.4648H68.2881C68.0312 62.4648 67.8586 62.2949 67.688 62.1231L67.0898 61.3549C66.8323 61.0139 66.9186 60.586 67.1755 60.3293L67.2611 60.2431C66.8323 59.6442 66.4048 59.0464 66.0623 58.4487L65.806 58.533H65.6341C65.3779 58.533 65.1216 58.4481 64.951 58.1914L64.4372 57.337C64.1809 56.9947 64.2665 56.5675 64.6091 56.3108C64.1898 55.6407 63.8523 55.0517 63.5163 54.4654L63.4965 54.4308H63.154C62.8977 54.4308 62.6402 54.3452 62.4695 54.0885L61.957 53.2328C61.7008 52.8918 61.7851 52.464 62.1277 52.2073L62.2133 52.123C61.9547 51.7359 61.7945 51.3965 61.6575 51.1064C61.6131 51.0123 61.571 50.9232 61.5289 50.8394C61.272 50.3267 61.0157 50.0712 60.6738 50.0712C60.075 50.0712 59.3037 50.7539 58.363 51.8656L58.5349 52.2079C58.7062 52.4646 58.6212 52.8069 58.4493 53.0636L57.8505 53.8325C57.6786 54.0892 57.5086 54.1747 57.2517 54.1747H57.248C57.078 54.1747 56.9079 54.1747 56.8236 54.0898L56.6517 54.0042L56.619 54.0424C56.1167 54.6286 55.6145 55.2148 55.1122 55.8848L55.3685 56.3127C55.5404 56.5694 55.4547 56.9104 55.2841 57.1671L54.684 57.9366C54.5134 58.1077 54.3421 58.1933 54.0852 58.1933C53.914 58.1933 53.8277 58.1933 53.6571 58.1077L53.4002 57.9372C53.2331 58.1044 53.0659 58.2806 52.8958 58.4599C52.5434 58.8313 52.1785 59.216 51.7751 59.5618L51.9457 60.0739C52.0314 60.4162 51.9464 60.7591 51.6895 60.9296L50.9194 61.6135C50.7482 61.6997 50.5769 61.7853 50.4063 61.7853C50.2356 61.7853 50.0644 61.6984 49.8937 61.5279L49.7218 61.3574C48.1817 62.4686 46.5566 63.3236 44.7603 63.6652C44.3328 63.7508 43.989 63.7508 43.5614 63.7508C35.2634 63.7508 30.9006 47.849 40.3112 44.43C41.4232 44.0028 42.4501 43.8323 43.3914 43.8323C47.7536 43.8323 49.6368 48.0207 48.7812 50.4997C47.9267 53.0649 45.7016 54.3478 43.9059 54.3478C42.8789 54.3478 42.0239 53.9206 41.5101 53.1511C40.6544 51.9537 40.9957 50.0725 42.2795 49.3879C42.622 49.2174 43.1345 49.0469 43.5621 49.0469C44.2465 49.0469 44.7609 49.3043 44.8465 49.9876C44.8465 49.9876 44.9315 50.4991 44.3328 50.7558C44.2471 50.8413 44.1621 50.8413 44.0765 50.8413C43.9484 50.8413 43.8416 50.7985 43.7347 50.7555C43.6277 50.7126 43.5206 50.6696 43.3921 50.6696C43.3064 50.6696 43.1358 50.6696 43.0502 50.7551C42.622 51.0974 42.4508 52.5508 43.734 52.5508H43.8202C45.1884 52.4646 45.8735 50.7551 45.8735 50.7551C46.7292 49.045 45.701 47.2506 43.5627 47.2506H43.5571C43.3027 47.2506 43.0489 47.2506 42.7939 47.3349C40.8269 47.6772 39.0299 49.1306 38.858 51.5246C38.6011 54.7731 40.9119 56.9947 43.7346 56.9947C45.5316 56.9947 47.4986 56.1409 49.2106 54.2597C51.353 51.9336 52.3628 50.1972 53.3217 48.5481C53.7511 47.8098 54.1703 47.0889 54.6764 46.3404C54.4417 46.5369 54.2064 46.5401 53.9711 46.4628L53.0304 46.0349C52.7735 45.95 52.6022 45.6077 52.6879 45.351L52.8585 44.4953C52.431 44.2386 52.0047 43.9825 51.4909 43.6409C47.6419 41.0764 46.9563 38.2551 47.555 35.9473L47.2988 35.605C47.1282 35.4345 47.1281 35.1778 47.2131 35.0073L47.555 34.2378C47.7263 34.0661 47.8982 33.8956 48.1551 33.9811L48.4114 34.0654C48.7532 33.4677 49.2664 32.87 49.6946 32.4428L49.5227 32.0999C49.4377 31.8432 49.5227 31.6733 49.6946 31.5028L50.2934 30.9894C50.4652 30.9038 50.7215 30.8176 50.8921 30.9894L51.319 31.3317C51.9185 31.0756 52.6885 30.9038 53.4586 30.8183L53.5429 30.3917C53.6292 30.1356 53.7992 30.0488 54.0561 30.0488L54.9124 30.1343C55.083 30.1343 55.3405 30.3055 55.3405 30.5622L55.4262 30.8183C56.6238 31.0743 57.6494 31.7583 58.1626 33.1261C58.6764 34.2372 58.5914 35.6044 56.88 36.4601C54.998 37.4001 54.0561 36.2047 54.0561 35.3496C54.0561 35.008 54.3992 34.8356 54.6561 35.0923C54.8274 35.2634 55.0843 35.4352 55.5124 35.4352C55.94 35.4352 57.3938 33.5546 54.3999 33.469C52.3466 33.3834 51.149 35.7768 51.5766 37.9135C51.9191 39.7085 53.6298 40.8203 57.907 40.9052C58.0509 41.335 58.2546 41.7597 58.4677 42.0886C58.7354 41.8478 59.005 41.6063 59.305 41.3508C59.305 41.3508 55.9691 37.6758 59.905 34.6834C60.5032 34.2556 61.3595 34.1707 62.0433 34.1707C62.0433 34.1707 62.8317 14.9564 77.528 15.1446ZM95.9211 34.5123C95.8837 34.4749 95.8577 34.4318 95.8355 34.3881C95.2202 35.4377 94.3271 36.4005 93.0527 37.1877C89.5412 39.3606 87.2926 39.9367 85.7969 40.1459C85.0532 40.4712 84.3376 40.7191 83.6651 40.9521C83.2187 41.1068 82.7909 41.2551 82.3868 41.4148C84.265 42.3973 87.9237 43.928 90.6176 44.0003C95.7511 44.0865 97.8044 42.8892 98.1469 41.0085C98.3533 39.8382 97.7825 39.2778 97.1501 38.6572C96.9976 38.5074 96.8414 38.3541 96.6918 38.188L96.3493 38.2735C96.093 38.3591 95.8367 38.1867 95.7511 38.0162L95.3229 37.248C95.2367 37.0768 95.2367 36.8201 95.4073 36.6483L95.7511 36.3073C95.7511 35.7946 95.8361 35.2811 96.093 34.6828L95.9211 34.5123ZM74.2778 36.3942C76.0742 36.3942 77.528 37.8469 77.528 39.642C77.528 41.437 76.0742 42.8898 74.2778 42.8898C72.4815 42.8898 71.0276 41.437 71.0276 39.642C71.0276 37.8469 72.4815 36.3942 74.2778 36.3942Z" fill="#67C8F5"/>
<path d="M74.1365 41.6206C71.8263 41.6206 72.2539 39.2266 72.2539 39.2266C72.2539 39.2266 74.0509 40.4226 76.0178 39.2266C76.0178 39.2266 76.4454 41.6206 74.1365 41.6206Z" fill="#20252F"/>
</svg>
