<svg width="99" height="94" viewBox="0 0 99 94" fill="none" xmlns="http://www.w3.org/2000/svg">
<rect x="0.615234" y="0.14209" width="98.0293" height="93.847" rx="46.9235" fill="#F9E168"/>
<path d="M41.7824 29.8564L43.126 29.0445L39.5982 24.1421L38.4433 24.8369C32.1342 28.623 24.6152 35.555 24.6152 47.0617C24.6152 58.5683 32.1342 65.5004 38.4433 69.2865L39.614 69.9891L43.0553 65.0632L41.7353 64.267C34.837 60.114 30.8771 53.8376 30.8771 47.0617C30.8771 40.2857 34.8527 34.0328 41.7824 29.8564V29.8564Z" fill="#272A5E"/>
<path d="M60.8087 24.8369L59.6537 24.1421L56.126 29.0445L57.4695 29.8564C64.3993 34.0328 68.3748 40.3013 68.3748 47.0617C68.3748 53.822 64.4228 60.114 57.5245 64.267L56.2045 65.0632L59.6459 69.9891L60.8165 69.2865C67.1256 65.5004 74.6446 58.5683 74.6446 47.0617C74.6446 35.555 67.1256 28.623 60.8165 24.8369H60.8087Z" fill="#272A5E"/>
</svg>
