<svg width="32" height="32" viewBox="0 0 32 32" fill="none" xmlns="http://www.w3.org/2000/svg">
<rect width="32" height="32" rx="16" fill="white"/>
<circle cx="16.5" cy="14.5" r="1.5" fill="white"/>
<path fill-rule="evenodd" clip-rule="evenodd" d="M17.1509 7.7555C17.1509 7.7555 17.5742 7.69682 18.1801 7.70008C19.513 7.70733 21.7293 8.01411 22.2639 9.90314C22.2639 9.90314 23.0396 11.5104 22.5666 12.8549C22.59 12.8427 22.6175 12.8375 22.6507 12.8485L22.7484 12.8972C22.8218 12.7996 22.9195 12.7265 23.0418 12.6531V12.5799C23.0418 12.531 23.0657 12.4577 23.1391 12.4333L23.3591 12.3356C23.4325 12.3112 23.4814 12.3356 23.5302 12.3844L23.5793 12.4334C24.0195 12.3112 24.5813 12.3603 25.1926 12.7022C25.2416 12.7265 25.2173 12.7998 25.1682 12.7998C24.9239 12.7752 24.5328 12.7507 24.3128 12.7507C23.5306 12.7507 22.7971 13.2638 23.4327 13.8013C24.0926 14.3384 25.1192 15.4621 23.0905 16.8053C22.9195 16.9276 22.7727 17.025 22.6018 17.0983L22.6262 17.2937C22.6507 17.3671 22.6018 17.4647 22.5284 17.4891L22.2592 17.6114C22.186 17.6358 22.0887 17.611 22.0396 17.5623L21.8685 17.3914C21.624 17.4647 21.3797 17.4891 21.1354 17.5136L21.1109 17.6603C21.0865 17.7338 21.0129 17.8068 20.9399 17.8068L20.6466 17.8311C20.5732 17.8311 20.4997 17.7825 20.4752 17.7092L20.402 17.4893L20.3977 17.4888C20.1791 17.4646 19.9607 17.4403 19.7666 17.3915L19.6687 17.538C19.62 17.6114 19.5221 17.636 19.4487 17.6116L19.1799 17.514C19.1067 17.4895 19.0576 17.4163 19.0576 17.343V17.1717C18.9357 17.1312 18.687 17.0701 18.417 17.0038C18.1978 16.95 17.9645 16.8927 17.7734 16.8401C18.4516 18.0355 21.2583 19.3396 23.2618 20.2007C23.8484 20.4693 24.2883 20.5669 24.6062 20.5669C25.1437 20.5669 25.3885 20.298 25.5352 19.9807C25.9752 19.0768 25.315 18.32 24.6062 18.32C24.337 18.32 24.0197 18.4419 23.7997 18.7595C23.6531 18.9303 23.6286 19.663 24.4106 19.663H24.4351C24.5572 19.6386 24.8994 19.541 24.8749 19.2722C24.8749 19.077 24.7037 19.0037 24.5571 19.0037C24.3862 19.0037 24.264 19.0772 24.3619 19.2481C24.3619 19.2481 24.4106 19.3947 24.2395 19.3947C24.0683 19.3947 23.9463 19.1016 24.1172 18.8573C24.2151 18.7599 24.4106 18.6619 24.6306 18.6619C24.924 18.6619 25.2173 18.8086 25.3151 19.2237C25.4618 19.761 24.924 20.1276 24.3374 20.1276C24.1419 20.1276 23.9215 20.0785 23.7261 19.9562C23.0171 19.5412 23.0171 19.1257 23.0416 18.7838C23.1148 18.0022 23.8731 17.5871 24.6796 17.5871C24.8507 17.5871 24.9971 17.6114 25.1437 17.6358C25.2171 17.538 25.3392 17.4408 25.3884 17.4408L25.6084 17.4649C25.7059 17.4893 25.7795 17.5871 25.8039 17.6847L25.8527 17.9044C26.0484 18.0266 26.2191 18.1735 26.3657 18.3687H26.3904C26.5125 18.3687 26.6349 18.3932 26.6592 18.4175L26.7817 18.5888C26.8306 18.6375 26.8306 18.7597 26.7572 18.8573L26.6836 18.9551L26.685 18.9614C26.7333 19.1792 26.7817 19.3972 26.7817 19.6632H26.9283C27.0017 19.6879 27.0503 19.7367 27.0015 19.8345L26.977 20.054C26.977 20.1274 26.8795 20.225 26.7818 20.2494L26.6838 20.2739C26.6593 20.2982 26.6593 20.3472 26.6593 20.3715C26.4638 21.4463 25.6327 21.8612 24.5817 21.8612C23.775 21.8612 22.8216 21.6171 21.893 21.2018C21.1842 20.8844 20.4264 20.4937 19.693 20.1029L19.5957 20.2007C19.5466 20.2494 19.473 20.2739 19.4242 20.2739C19.412 20.2739 19.3998 20.2678 19.3876 20.2617C19.3754 20.2556 19.3632 20.2494 19.351 20.2494L19.0821 20.1516C18.9842 20.1029 18.9354 19.9809 18.9597 19.8831L19.0088 19.7118C18.9593 19.6835 18.9077 19.6532 18.8546 19.622C18.7244 19.5455 18.5853 19.4638 18.4463 19.3945L18.349 19.4921C18.2999 19.5412 18.2263 19.5653 18.1775 19.5653C18.1653 19.5653 18.153 19.5593 18.1408 19.5532C18.1287 19.5472 18.1165 19.5412 18.1043 19.5412L17.8356 19.4432C17.7377 19.3945 17.6889 19.2722 17.7132 19.1746L17.7623 19.0037C17.6361 18.9248 17.5097 18.8561 17.3899 18.791C17.3243 18.7554 17.2608 18.7209 17.2003 18.6864L17.078 18.8083C17.0293 18.857 16.9557 18.8818 16.9069 18.8818C16.8947 18.8818 16.8824 18.8757 16.8702 18.8695C16.858 18.8634 16.8458 18.8573 16.8337 18.8573L16.5646 18.7597C16.4671 18.7106 16.4178 18.5884 16.4423 18.4906L16.4914 18.2956C16.3446 18.2224 16.198 18.1491 16.0756 18.0757L15.9537 18.2222C15.9045 18.2709 15.831 18.2958 15.7822 18.2958C15.77 18.2958 15.7578 18.2896 15.7456 18.2835C15.7334 18.2774 15.7212 18.2713 15.709 18.2713L15.44 18.1737C15.3422 18.1246 15.2934 18.0026 15.3177 17.9048L15.3668 17.7342L15.3193 17.7163C15.1508 17.6531 15.0406 17.6117 14.9511 17.6117C14.8777 17.6117 14.8288 17.6364 14.8288 17.7097C14.8288 18.4912 17.1266 22.961 18.0554 22.961C18.2263 22.961 18.3727 22.7899 18.4218 22.4235C18.5685 21.4222 18.4459 21.1292 18.2506 21.1292C18.0059 21.1292 17.5905 21.7154 17.5905 21.7154C17.5905 21.7154 17.5418 20.6897 18.3727 20.4454C18.4454 20.4211 18.5183 20.4211 18.5911 20.4211H18.5927C19.8884 20.4211 19.9859 24.207 18.1525 24.28H18.1038C17.0771 24.28 15.7327 22.8149 14.6328 21.2515L14.5841 21.2755H14.5109C14.4375 21.2755 14.3882 21.227 14.3394 21.1779L14.1685 20.9584C14.0949 20.861 14.1196 20.7388 14.193 20.6654L14.2175 20.6408C14.0949 20.4697 13.9728 20.2989 13.8749 20.1281L13.8017 20.1522H13.7526C13.6794 20.1522 13.6062 20.1279 13.5574 20.0546L13.4106 19.8105C13.3374 19.7127 13.3619 19.5906 13.4597 19.5173C13.3399 19.3258 13.2435 19.1575 13.1475 18.99L13.1419 18.9801H13.044C12.9708 18.9801 12.8972 18.9557 12.8484 18.8823L12.702 18.6378C12.6288 18.5404 12.6529 18.4182 12.7508 18.3448L12.7752 18.3207C12.7014 18.2102 12.6556 18.1132 12.6164 18.0303C12.6037 18.0034 12.5917 17.9779 12.5797 17.954C12.5063 17.8075 12.4331 17.7345 12.3354 17.7345C12.1643 17.7345 11.9439 17.9296 11.6752 18.2472L11.7243 18.345C11.7732 18.4184 11.7489 18.5161 11.6998 18.5895L11.5287 18.8092C11.4796 18.8825 11.431 18.907 11.3576 18.907H11.3566C11.308 18.907 11.2594 18.907 11.2353 18.8827L11.1862 18.8582L11.1768 18.8692C11.0333 19.0366 10.8898 19.2041 10.7463 19.3956L10.8196 19.5178C10.8687 19.5911 10.8442 19.6886 10.7955 19.7619L10.624 19.9818C10.5753 20.0307 10.5263 20.0551 10.4529 20.0551C10.404 20.0551 10.3793 20.0551 10.3306 20.0307L10.2572 19.982C10.2095 20.0297 10.1617 20.0801 10.1131 20.1313C10.0124 20.2374 9.90813 20.3473 9.79288 20.4461L9.84164 20.5924C9.8661 20.6902 9.84182 20.7882 9.76842 20.8369L9.5484 21.0323C9.49947 21.057 9.45054 21.0814 9.40179 21.0814C9.35304 21.0814 9.3041 21.0566 9.25535 21.0079L9.20624 20.9592C8.76621 21.2766 8.3019 21.5209 7.78865 21.6185C7.6665 21.643 7.56827 21.643 7.44612 21.643C5.07526 21.643 3.82875 17.0996 6.51749 16.1228C6.83519 16.0007 7.12861 15.952 7.39755 15.952C8.64388 15.952 9.18195 17.1487 8.93747 17.857C8.69336 18.5899 8.0576 18.9564 7.54453 18.9564C7.25112 18.9564 7.00682 18.8343 6.86002 18.6145C6.61554 18.2724 6.71304 17.7349 7.07985 17.5393C7.17772 17.4906 7.32415 17.4419 7.4463 17.4419C7.64185 17.4419 7.78883 17.5154 7.8133 17.7106C7.8133 17.7106 7.83758 17.8568 7.6665 17.9301C7.64203 17.9546 7.61775 17.9546 7.59328 17.9546C7.5567 17.9546 7.52617 17.9423 7.49563 17.93C7.46505 17.9178 7.43446 17.9055 7.39773 17.9055C7.37327 17.9055 7.32452 17.9055 7.30005 17.9299C7.17772 18.0277 7.12879 18.443 7.49542 18.443H7.52007C7.91098 18.4184 8.10671 17.9299 8.10671 17.9299C8.35119 17.4413 8.05742 16.9286 7.44649 16.9286H7.44487C7.3722 16.9286 7.29969 16.9286 7.22683 16.9527C6.66484 17.0505 6.15141 17.4658 6.10229 18.1498C6.0289 19.0779 6.68912 19.7127 7.4956 19.7127C8.00903 19.7127 8.57102 19.4687 9.06017 18.9312C9.6723 18.2666 9.96079 17.7705 10.2348 17.2994C10.3575 17.0884 10.4772 16.8824 10.6218 16.6686C10.5548 16.7247 10.4875 16.7256 10.4203 16.7035L10.1515 16.5813C10.0781 16.557 10.0292 16.4592 10.0537 16.3859L10.1024 16.1414C9.98028 16.0681 9.85849 15.9949 9.71169 15.8973C8.61198 15.1646 8.41607 14.3585 8.58715 13.6991L8.51394 13.6013C8.46519 13.5526 8.46519 13.4793 8.48947 13.4306L8.58715 13.2107C8.63609 13.1616 8.6852 13.1129 8.7586 13.1374L8.83182 13.1614C8.9295 12.9907 9.07612 12.8199 9.19845 12.6978L9.14933 12.5999C9.12505 12.5265 9.14933 12.478 9.19845 12.4293L9.36953 12.2826C9.41864 12.2581 9.49186 12.2335 9.54061 12.2826L9.66258 12.3804C9.83384 12.3072 10.0539 12.2581 10.2739 12.2337L10.298 12.1118C10.3226 12.0386 10.3712 12.0138 10.4446 12.0138L10.6893 12.0383C10.738 12.0383 10.8116 12.0872 10.8116 12.1605L10.8361 12.2337C11.1782 12.3068 11.4713 12.5023 11.6179 12.8931C11.7647 13.2105 11.7404 13.6012 11.2514 13.8456C10.7137 14.1142 10.4446 13.7727 10.4446 13.5284C10.4446 13.4307 10.5426 13.3815 10.616 13.4548C10.665 13.5037 10.7384 13.5528 10.8607 13.5528C10.9828 13.5528 11.3982 13.0155 10.5428 12.991C9.95617 12.9666 9.61401 13.6504 9.73616 14.2609C9.83402 14.7738 10.3228 15.0914 11.5448 15.1157C11.586 15.2385 11.6442 15.3598 11.7051 15.4538C11.7815 15.385 11.8586 15.316 11.9443 15.243C11.9443 15.243 10.9912 14.193 12.1157 13.338C12.2866 13.2158 12.5313 13.1915 12.7267 13.1915C12.7267 13.1915 12.9519 7.70171 17.1509 7.7555ZM22.406 13.2891C22.3953 13.2784 22.3879 13.2661 22.3816 13.2536C22.2058 13.5535 21.9506 13.8286 21.5865 14.0535C20.5832 14.6743 19.9407 14.839 19.5134 14.8987C19.3009 14.9917 19.0965 15.0625 18.9043 15.1291C18.7768 15.1733 18.6545 15.2156 18.5391 15.2613C19.0757 15.542 20.1211 15.9793 20.8908 16C22.3575 16.0246 22.9441 15.6825 23.042 15.1452C23.101 14.8108 22.9379 14.6507 22.7572 14.4734C22.7136 14.4306 22.669 14.3868 22.6262 14.3393L22.5284 14.3638C22.4551 14.3882 22.3819 14.3389 22.3575 14.2902L22.2351 14.0707C22.2105 14.0218 22.2105 13.9485 22.2592 13.8994L22.3575 13.802C22.3575 13.6555 22.3817 13.5088 22.4551 13.3378L22.406 13.2891ZM16.2222 13.8268C16.7355 13.8268 17.1509 14.2419 17.1509 14.7547C17.1509 15.2676 16.7355 15.6827 16.2222 15.6827C15.709 15.6827 15.2936 15.2676 15.2936 14.7547C15.2936 14.2419 15.709 13.8268 16.2222 13.8268Z" fill="#00A1ED"/>
<path d="M16.1821 15.32C15.522 15.32 15.6442 14.636 15.6442 14.636C15.6442 14.636 16.1576 14.9777 16.7196 14.636C16.7196 14.636 16.8417 15.32 16.1821 15.32Z" fill="#20252F"/>
</svg>
